<svg xmlns="http://www.w3.org/2000/svg" aria-hidden="true" style="position:absolute;width:0;height:0;overflow:hidden">
    <defs>
        <symbol id="icon-left-arrow-alt" viewBox="0 0 32 32">
            <path d="m16.943 23.057-5.724-5.724H24v-2.667H11.219l5.724-5.724-1.885-1.885L6.115 16l8.943 8.943 1.885-1.885z"/>
        </symbol>
        <symbol id="icon-right-arrow-alt" viewBox="0 0 32 32">
            <path d="m15.057 23.057 1.885 1.885 8.943-8.943-8.943-8.943-1.885 1.885 5.724 5.724H8v2.667h12.781l-5.724 5.724z"/>
        </symbol>
        <symbol id="star" viewBox="0 0 32 32">
<path fill="currentColor" d="M14.512 1.037c0.228-0.613 0.808-1.041 1.488-1.041s1.26 0.428 1.484 1.030l0.004 0.011 3.245 8.165c0.232 0.582 0.757 0.981 1.358 1.032l8.426 0.706c1.427 0.12 2.006 1.984 0.918 2.958l-6.419 5.752c-0.459 0.411-0.659 1.056-0.518 1.67l1.96 8.6c0.333 1.456-1.184 2.608-2.405 1.827l-7.213-4.608c-0.237-0.155-0.528-0.247-0.84-0.247s-0.603 0.092-0.846 0.251l0.006-0.004-7.213 4.608c-1.222 0.782-2.738-0.37-2.405-1.827l1.96-8.6c0.029-0.118 0.045-0.254 0.045-0.393 0-0.505-0.217-0.96-0.562-1.276l-0.001-0.001-6.419-5.752c-1.088-0.976-0.509-2.838 0.918-2.958l8.426-0.706c0.603-0.051 1.126-0.448 1.36-1.032z"></path>
</symbol>
    </defs>
</svg>