<svg aria-hidden="true" style="position: absolute; width: 0; height: 0; overflow: hidden;" version="1.1" xmlns="http://www.w3.org/2000/svg" xmlns:xlink="http://www.w3.org/1999/xlink">
<defs>
<symbol id="icon-burger" viewBox="0 0 44 32">
<path d="M0 0h42.667v5.333h-42.667v-5.333zM0 13.333h42.667v5.333h-42.667v-5.333zM0 26.667h42.667v5.333h-42.667v-5.333z"></path>
</symbol>
<symbol id="icon-close" viewBox="0 0 32 32">
<path d="M26.397 0l-11.315 11.312-11.312-11.312-3.771 3.771 11.312 11.312-11.312 11.312 3.771 3.771 11.312-11.312 11.315 11.312 3.771-3.771-11.312-11.312 11.312-11.312-3.771-3.771z"></path>
</symbol>

<symbol id="icon-logo" viewBox="0 0 144 32">
<path d="M14.427 0.070c8.751-0.817 16.506 5.621 17.313 14.373s-5.638 16.5-14.391 17.299c-8.74 0.798-16.475-5.636-17.281-14.376s5.62-16.48 14.359-17.296zM17.6 30.059c7.813-0.938 13.384-8.035 12.442-15.847s-8.043-13.379-15.854-12.432c-7.805 0.947-13.366 8.039-12.424 15.844 0.942 7.806 8.030 13.371 15.836 12.435z"></path>
<path d="M22.129 7.629l1.831-0.013c0.036 5.283 0.038 10.567 0.008 15.851l-1.893 0.024-0.003-9.927-0.009-2.718c-1.057 2.006-2.258 3.935-3.401 5.893-0.725 1.241-1.398 2.665-2.295 3.78-0.214 0.078-0.446 0.084-0.669 0.033-0.073-0.017-0.225-0.074-0.281-0.118-0.484-0.386-5.034-8.379-5.76-9.591 0.187 1.437 0.069 3.006 0.069 4.457l-0.005 8.152-1.936 0.007c0.060-5.275-0.035-10.553 0.016-15.83l2.108 0.011c0.937 1.676 1.943 3.317 2.915 4.973 1.033 1.76 2.039 3.541 3.136 5.262 1.116-2.039 2.365-4.015 3.565-6.006 0.85-1.41 1.654-2.896 2.606-4.239z"></path>
<path d="M119.051 11.393c0.373-0.025 0.757-0.035 1.131-0.028 1.395 0.025 2.822 0.771 3.776 1.76 1.191 1.233 1.744 2.952 1.704 4.648-0.040 1.726-0.688 3.366-1.957 4.55-1.126 1.049-2.568 1.61-4.112 1.552-1.766-0.066-2.938-0.811-4.123-2.075-0.046 0.724-0.032 1.456-0.039 2.181 0.008 1.441 0.006 2.882-0.005 4.323-0.672 0.066-1.349 0.060-2.020-0.019 0.11-2.231 0.013-4.515 0.014-6.752 0-3.327 0.052-6.663-0.023-9.989l1.999-0.008c-0.038 0.742-0.029 1.492-0.040 2.236 1.082-1.351 1.986-2.003 3.696-2.379zM119.917 22.091c1.243-0.233 2.205-0.74 2.934-1.812 0.714-1.067 0.97-2.376 0.71-3.633-0.223-1.12-0.887-2.179-1.862-2.791-0.768-0.482-1.598-0.614-2.486-0.589-1.232 0.233-2.23 0.671-2.968 1.745-0.696 1.011-0.996 2.451-0.761 3.654 0.223 1.155 0.908 2.169 1.897 2.805 0.788 0.496 1.621 0.639 2.535 0.623z"></path>
<path d="M81.755 6.381c0.326 0.335 0.427 1.218 0.621 1.691-2.097 0.88-5.138 0.699-6.825 2.31-1.009 0.964-1.249 2.296-1.271 3.625 0.902-1.115 1.892-2.018 3.371-2.265 1.495-0.25 3.080 0.039 4.306 0.952 1.317 0.981 2.051 2.402 2.271 4.013 0.253 1.851-0.208 3.596-1.344 5.074-0.823 0.913-1.779 1.587-2.984 1.882-1.526 0.374-3.268 0.18-4.612-0.654-1.534-0.953-2.416-2.524-2.799-4.253-0.572-2.584-0.459-6.445 1.030-8.739 1.313-2.023 3.297-2.424 5.5-2.948 0.915-0.218 1.817-0.485 2.735-0.688zM78.268 22.102c1.299-0.192 2.265-0.503 3.072-1.619 0.792-1.094 1.048-2.475 0.802-3.79-0.198-1.061-0.757-2.032-1.668-2.632-0.558-0.369-1.205-0.58-1.874-0.612-1.264 0.141-2.303 0.403-3.144 1.445-0.789 0.979-1.127 2.3-0.953 3.54 0.159 1.131 0.777 2.22 1.706 2.894 0.629 0.456 1.303 0.656 2.058 0.773z"></path>
<path d="M53.337 7.186c0.738-0.074 1.506-0.039 2.249-0.044-0.1 5.436 0.019 10.889-0.012 16.328l-1.958-0.020 0.003-9.617c-0.005-1.102-0.028-2.206 0.039-3.306-1.804 3.332-3.432 6.811-5.408 10.042l-1.272-0.007c-1.946-3.191-3.566-6.63-5.366-9.909 0.070 1.504 0.023 3.031 0.024 4.537l0.004 8.281c-0.653-0.017-1.303 0.026-1.956-0.005l0.001-9.906c0.001-2.129-0.040-4.272 0.076-6.399l2.178 0.001c0.619 1.062 1.145 2.199 1.708 3.293 1.305 2.537 2.597 5.101 4.005 7.582 2.069-3.508 3.707-7.287 5.685-10.851z"></path>
<path d="M63.406 11.398c0.299-0.016 0.598-0.027 0.897-0.034 1.567-0.026 3.129 0.402 4.259 1.538 1.512 1.519 1.662 3.434 1.662 5.458-3.263 0.042-6.53-0.003-9.793 0.012 0.101 0.538 0.202 1.054 0.458 1.545 0.51 0.983 1.395 1.719 2.455 2.040 1.268 0.384 2.544 0.159 3.686-0.47 0.383-0.26 0.733-0.565 1.089-0.859 0.512 0.293 1.031 0.537 1.572 0.771-0.805 1.086-1.843 1.878-3.157 2.238-1.682 0.46-3.732 0.28-5.247-0.611-1.328-0.783-2.282-2.073-2.64-3.572-0.448-1.803-0.198-3.775 0.781-5.361 0.943-1.529 2.266-2.284 3.978-2.693zM60.452 16.835c1.616-0.013 3.232-0.018 4.848-0.014l3.021 0.002c-0.294-1.24-0.59-2.389-1.743-3.115-0.844-0.531-1.868-0.612-2.839-0.531-1.049 0.242-1.933 0.72-2.532 1.644-0.405 0.626-0.585 1.299-0.755 2.013z"></path>
<path d="M103.994 11.394c0.293-0.015 0.586-0.024 0.88-0.029 1.563-0.017 3.125 0.447 4.241 1.587 1.467 1.501 1.603 3.417 1.596 5.399-3.249 0.049-6.506 0.010-9.756 0.018 0.043 0.593 0.147 1.103 0.424 1.636 0.512 0.987 1.361 1.641 2.422 1.951 1.419 0.417 2.71 0.109 3.963-0.587 0.306-0.211 0.579-0.469 0.857-0.715 0.516 0.277 1.038 0.502 1.581 0.718-0.85 1.117-1.907 1.926-3.28 2.274-1.707 0.433-3.667 0.267-5.19-0.652-1.352-0.817-2.279-2.162-2.635-3.695-0.406-1.75-0.123-3.763 0.856-5.281s2.316-2.251 4.041-2.624zM100.936 16.831c1.547-0.004 3.096-0.026 4.644-0.009l3.279-0.002c-0.34-1.275-0.697-2.517-1.93-3.218-0.763-0.435-1.694-0.509-2.556-0.422-1.023 0.169-1.889 0.554-2.523 1.41-0.504 0.677-0.719 1.434-0.912 2.241z"></path>
<path d="M137.736 11.566c1.978-0.093 3.987-0.026 5.969-0.019-0.101 3.963-0.011 7.952-0.013 11.918l-2.039-0.022-0.002-4.071c-0.974-0.006-2.256-0.196-3.184 0.025-0.291 0.069-0.342 0.215-0.505 0.441-0.688 1.22-1.454 2.398-2.144 3.62-0.771 0.017-1.542 0.020-2.313 0.006 0.755-1.416 1.779-3.218 2.778-4.445-0.12-0.058-0.237-0.119-0.352-0.182-0.871-0.481-1.537-1.254-1.792-2.223-0.266-1.011-0.122-2.164 0.42-3.062 0.729-1.211 1.871-1.676 3.177-1.984zM139.826 17.662c0.602-0.005 1.216 0.014 1.817-0.030-0.007-1.409-0.004-2.819 0.011-4.228-1.196-0.004-2.407-0.036-3.601 0.029-0.754 0.236-1.342 0.491-1.749 1.217-0.27 0.483-0.342 1.12-0.16 1.644 0.176 0.508 0.583 0.864 1.063 1.081 0.81 0.366 1.752 0.294 2.619 0.287z"></path>
<path d="M88.369 11.675c2.582-0.093 5.186-0.033 7.771-0.037l-0.012 11.825c-0.644-0.009-1.29-0.037-1.928 0.051l-0.010-10.017-1.095 0.044c-0.978-0.048-1.977 0.016-2.957 0.039-0.027 2.384-0.037 7.325-1.706 9.089-0.833 0.879-1.773 0.97-2.911 0.979-0.008-0.622-0.042-1.236-0.087-1.856 0.297-0.027 0.611-0.048 0.901-0.121 1.797-0.453 1.829-6.392 1.874-7.889 0.018-0.584-0.111-1.633 0.161-2.108z"></path>
<path d="M130.25 11.588l0.264-0.016c0.032 0.043 0.077 0.079 0.096 0.129 0.089 0.233-0.002 10.563-0.001 11.757l-1.732 0.012-0.128-0.026c-0.277-0.501 0.001-10.345-0.086-11.833 0.529 0.007 1.058-0.011 1.586-0.024z"></path>
<path d="M128.628 7.128l1.991-0.006c-0.021 0.707-0.005 1.414 0.006 2.121l-2.051 0.016c0.029-0.71 0.048-1.42 0.054-2.131z"></path>
</symbol>
</defs>
</svg>
